# xmcd
#
# Track frame offsets: 
#        150
#        20190
#        40162
#        57310
#        75975
#        102847
#        120372
#
# Disc length: 2085 seconds
#
# Revision: 3
# Processed by: cddbd v1.5.2PL0 Copyright (c) Steve Scherf et al.
# Submitted via: ExactAudioCopy v1.0b2
#
DISCID=4d082307
DTITLE=Deniece Williams - This is Neicy
DYEAR=1976
DGENRE=Soul
TTITLE0=It's Important To Me
TTITLE1=That's What Friends Are For
TTITLE2=Slip away
TTITLE3=Cause You Love Me Baby
TTITLE4=Free
TTITLE5=Watching Over
TTITLE6=If You Don't Believe
EXTD=
EXTT0=
EXTT1=
EXTT2=
EXTT3=
EXTT4=
EXTT5=
EXTT6=
PLAYORDER=
